<svg xmlns="http://www.w3.org/2000/svg" width="40" height="40" viewBox="0 0 40 40">
    <g fill="none" fill-rule="evenodd">
        <circle cx="20" cy="20" r="19.5" stroke="#FFF"/>
        <path fill="#FFF" fill-rule="nonzero" d="M28.943 23.709c-.07 1.441-.392 2.715-1.456 3.778-1.05 1.05-2.337 1.386-3.778 1.456-1.246.07-2.477.056-3.709.056-1.232 0-2.477.014-3.709-.056-1.441-.07-2.715-.392-3.778-1.456-1.05-1.05-1.386-2.337-1.456-3.778-.07-1.246-.056-2.477-.056-3.709 0-1.232-.014-2.477.056-3.709.07-1.441.392-2.715 1.456-3.778 1.05-1.05 2.337-1.386 3.778-1.456 1.246-.07 2.477-.056 3.709-.056 1.232 0 2.477-.014 3.709.056 1.441.07 2.715.392 3.778 1.456 1.05 1.05 1.386 2.337 1.456 3.778.07 1.246.056 2.477.056 3.709 0 1.232.014 2.463-.056 3.709zM14.696 12.974a2.976 2.976 0 0 0-1.036.686 2.853 2.853 0 0 0-.686 1.036c-.461 1.19-.363 3.988-.363 5.304 0 1.316-.112 4.129.363 5.304.168.406.364.714.686 1.036.322.322.616.518 1.036.686 1.19.461 3.988.363 5.304.363 1.316 0 4.129.112 5.304-.363a2.976 2.976 0 0 0 1.036-.686c.322-.322.518-.616.686-1.036.461-1.19.363-3.988.363-5.304 0-1.316.112-4.129-.363-5.304a2.976 2.976 0 0 0-.686-1.036 2.853 2.853 0 0 0-1.036-.686c-1.19-.461-3.988-.363-5.304-.363-1.316 0-4.115-.098-5.304.363zM20 24.604a4.614 4.614 0 0 1-4.618-4.618A4.605 4.605 0 0 1 20 15.368a4.605 4.605 0 0 1 4.618 4.618A4.605 4.605 0 0 1 20 24.604zm0-7.613a2.998 2.998 0 0 0-2.995 2.995A2.998 2.998 0 0 0 20 22.981a2.998 2.998 0 0 0 2.995-2.995A2.998 2.998 0 0 0 20 16.991zm4.814-.728a1.07 1.07 0 0 1-1.077-1.077 1.07 1.07 0 0 1 1.077-1.078 1.07 1.07 0 0 1 1.078 1.078c0 .601-.49 1.077-1.078 1.077z"/>
    </g>
</svg>
