<svg xmlns="http://www.w3.org/2000/svg" width="40" height="40" viewBox="0 0 40 40">
    <g fill="none" fill-rule="evenodd">
        <circle cx="20" cy="20" r="19.5" stroke="#FFF"/>
        <path fill="#FFF" fill-rule="nonzero" d="M20 13.025c1.221 0 2.214.959 2.214 2.137S21.22 17.3 20 17.3c-1.22 0-2.214-.96-2.214-2.137 0-1.178.994-2.137 2.214-2.137zm0 7.297c2.95 0 5.347-2.314 5.347-5.16C25.347 12.315 22.949 10 20 10c-2.948 0-5.346 2.315-5.346 5.162 0 2.846 2.398 5.16 5.346 5.16zm2.163 4.211a10.212 10.212 0 0 0 3.105-1.241c.732-.446.952-1.38.491-2.086-.46-.707-1.427-.92-2.16-.475a6.995 6.995 0 0 1-7.198 0c-.733-.445-1.7-.232-2.16.475a1.482 1.482 0 0 0 .49 2.086 10.231 10.231 0 0 0 3.105 1.241l-2.989 2.886a1.476 1.476 0 0 0 0 2.138c.307.295.708.443 1.108.443.401 0 .802-.148 1.108-.443L20 26.721l2.939 2.836c.611.59 1.603.59 2.214 0a1.474 1.474 0 0 0 0-2.138l-2.989-2.886z"/>
    </g>
</svg>
