<svg xmlns="http://www.w3.org/2000/svg" width="40" height="40" viewBox="0 0 40 40">
    <g fill="none" fill-rule="evenodd">
        <circle cx="20" cy="20" r="19.5" stroke="#FFF"/>
        <path fill="#FFF" fill-rule="nonzero" d="M28.234 18.434c-2.216 3.057-2.462 2.774-.629 4.543 1.765 1.698 2.134 2.505 2.189 2.618 0 0 .739 1.33-.807 1.345l-2.928.042c-.63.127-1.464-.467-1.464-.467-1.094-.778-2.134-2.802-2.927-2.548 0 0-.821.27-.807 2.095.013.396-.178.609-.178.609s-.205.226-.602.254h-1.327c-2.9.184-5.445-2.575-5.445-2.575s-2.79-2.987-5.24-8.945c-.164-.396.014-.58.014-.58s.178-.227.657-.227l3.133-.028c.3.042.506.212.506.212s.178.127.273.382a25.001 25.001 0 0 0 1.177 2.534c1.15 2.434 1.929 2.859 2.367 2.604 0 0 .588-.368.451-3.312-.04-1.062-.328-1.557-.328-1.557-.26-.368-.753-.467-.972-.51-.177-.028.11-.452.493-.636.56-.283 1.56-.298 2.736-.283.93.014 1.19.07 1.546.155 1.094.27.725 1.317.725 3.822 0 .806-.15 1.925.41 2.293.247.17.835.028 2.299-2.562 0 0 .684-1.232 1.23-2.661.097-.255.288-.368.288-.368s.178-.113.438-.07l3.297-.03c.999-.126 1.163.34 1.163.34.164.524-.383 1.657-1.738 3.51z"/>
    </g>
</svg>
