<?xml version="1.0" encoding="utf-8"?>
<!-- Generator: Adobe Illustrator 24.1.2, SVG Export Plug-In . SVG Version: 6.00 Build 0)  -->
<svg version="1.1" id="Слой_1" xmlns="http://www.w3.org/2000/svg" xmlns:xlink="http://www.w3.org/1999/xlink" x="0px" y="0px"
	 viewBox="0 0 231.9 49.7" style="enable-background:new 0 0 231.9 49.7;" xml:space="preserve">
<style type="text/css">
	.st0{fill-rule:evenodd;clip-rule:evenodd;fill:#FFFFFF;}
	.st1{fill-rule:evenodd;clip-rule:evenodd;fill:#6A42FF;}
</style>
<desc>Created with Sketch.</desc>
<g id="red-automama">
	<path id="Clip-5" class="st0" d="M78.8,7.2c-4.9,4.8-7.4,10.6-7.4,17.4c0,6.9,2.5,12.8,7.4,17.7c4.6,4.7,10.2,7.1,16.6,7.4h2.3
		c6.3-0.3,11.7-2.6,16.2-7.1c4.8-4.8,7.1-10.6,7.1-17.4c0-6.9-2.4-12.8-7.1-17.7S103.4,0,96.6,0C89.7,0,83.8,2.4,78.8,7.2z"/>
	<path id="Clip-2" class="st0" d="M56.8,25.8c0,1.2,0.1,2.4,0.4,3.6c0.3,1.2,0.8,2.3,1.6,3.5c1.1,1.5,2.3,2.7,3.8,3.4
		c1.5,0.8,3,1.3,4.9,1.4v-4.2c-0.7,0-1.8-0.3-2.9-1c-1.1-0.6-1.8-1.2-2.1-1.6c-0.5-0.7-0.9-1.5-1.2-2.3c-0.3-0.9-0.4-2.1-0.4-3.7
		V4.2H57L56.8,25.8z M47.5,12.2v14.7c0,1.9-0.6,3.5-1.9,4.8c-1.3,1.3-3,1.9-4.8,1.9s-3.4-0.5-4.8-1.7c-1.3-1.2-2-2.7-2-4.5V12.2h-4
		v16.7c0,2.7,1.1,4.9,3.3,6.6c2.1,1.6,4.5,2.4,7.4,2.4s5.4-0.8,7.5-2.5c2.2-1.7,3.2-3.9,3.2-6.5V12.2H47.5z"/>
	<polygon id="Fill-7" class="st0" points="22,37.6 26,37.6 26,12.2 22,12.2 	"/>
	<path id="Clip-9" class="st0" d="M3.8,15.6c2.5-2.5,5.6-3.8,9.1-3.8s6.5,1.3,8.9,3.9s3.7,5.7,3.7,9.3s-1.2,6.6-3.7,9.1
		c-2.4,2.5-5.4,3.8-8.9,3.8c-3.6,0-6.6-1.3-9.1-3.9C1.3,31.5,0,28.3,0,24.7S1.3,18.1,3.8,15.6z M6.8,31.1c1.7,1.7,3.7,2.5,6.1,2.5
		s4.4-0.9,6.1-2.6c1.7-1.7,2.5-3.9,2.5-6.3s-0.8-4.3-2.5-6s-3.7-2.4-6-2.4c-2.4,0-4.4,0.8-6.1,2.5s-2.5,3.7-2.5,6.1
		C4.3,27.3,5.1,29.4,6.8,31.1z"/>
	<polygon id="Fill-11" class="st0" points="175.4,37.6 179.3,37.6 179.3,12.3 175.4,12.3 	"/>
	<path id="Clip-13" class="st0" d="M157.1,15.6c2.5-2.5,5.6-3.8,9.1-3.8s6.5,1.3,8.9,3.9s3.7,5.7,3.7,9.3s-1.2,6.6-3.7,9.1
		c-2.4,2.5-5.4,3.8-8.9,3.8c-3.6,0-6.6-1.3-9.1-3.9s-3.8-5.7-3.8-9.3C153.3,21.2,154.6,18.1,157.1,15.6z M160.1,31.1
		c1.7,1.7,3.7,2.5,6.1,2.5c2.4,0,4.4-0.9,6.1-2.6c1.7-1.7,2.5-3.9,2.5-6.3s-0.8-4.3-2.5-6s-3.7-2.4-6-2.4c-2.4,0-4.4,0.8-6.1,2.5
		s-2.5,3.7-2.5,6.1C157.6,27.4,158.5,29.4,160.1,31.1z"/>
	<polygon id="Fill-44" class="st0" points="54.2,16.2 67.4,16.2 67.4,12.2 54.2,12.2 	"/>
</g>
<path class="st0" d="M130.6,33.4v13.1h3.9V33.4h4.5c1.1,0,2.7-0.1,4.5-0.8c1.1-0.4,2.1-0.9,2.8-1.4c0.3-0.3,0.7-0.7,1.2-1.2
	c0.4-0.5,1-1.3,1.5-2.5c0.7-1.5,1-3,1-4.6c0-3-0.8-5.5-2.5-7.7c-1.6-2.2-3.8-3.3-6.3-3.3h-10.6v34.5 M143.7,27.4
	c-1.3,1.2-2.8,1.8-4.6,1.8h-4.6v-13h5.1c1.7,0,3.1,0.6,4.3,2s1.8,2.9,1.8,4.8C145.7,24.8,145,26.3,143.7,27.4z"/>
<polygon id="Fill-11_1_" class="st0" points="228,37.7 231.9,37.7 231.9,12.3 228,12.3 "/>
<path id="Clip-13_1_" class="st0" d="M209.7,15.7c2.5-2.5,5.6-3.8,9.1-3.8s6.5,1.3,8.9,3.9s3.7,5.7,3.7,9.3s-1.2,6.6-3.7,9.1
	c-2.4,2.5-5.4,3.8-8.9,3.8c-3.6,0-6.6-1.3-9.1-3.9s-3.8-5.7-3.8-9.3C206,21.2,207.2,18.2,209.7,15.7z M212.8,31.2
	c1.7,1.7,3.7,2.5,6.1,2.5c2.4,0,4.4-0.9,6.1-2.6c1.7-1.7,2.5-3.9,2.5-6.3s-0.8-4.3-2.5-6s-3.7-2.4-6-2.4c-2.4,0-4.4,0.8-6.1,2.5
	s-2.5,3.7-2.5,6.1C210.3,27.4,211.1,29.5,212.8,31.2z"/>
<path class="st0" d="M183.3,33.5v13.1h3.9V33.5h4.5c1.1,0,2.7-0.1,4.5-0.8c1.1-0.4,2.1-0.9,2.8-1.4c0.3-0.3,0.7-0.7,1.2-1.2
	c0.4-0.5,1-1.3,1.5-2.5c0.7-1.5,1-3,1-4.6c0-3-0.8-5.5-2.5-7.7c-1.6-2.2-3.8-3.3-6.3-3.3h-10.6v34.5 M196.4,27.5
	c-1.3,1.2-2.8,1.8-4.6,1.8h-4.6v-13h5.1c1.7,0,3.1,0.6,4.3,2s1.8,2.9,1.8,4.8C198.3,24.8,197.7,26.3,196.4,27.5z"/>
<g>
	<path class="st1" d="M110,23.7V16c0-2.7-1.4-4.9-4.2-6.6c-2.6-1.6-5.8-1.3-9.5-1.3c-3.6,0-6.8-0.3-9.6,1.4
		c-2.7,1.7-4.1,3.9-4.1,6.5v7.7c-1.4,1.2-2.2,3-2.2,5v1.7c0,3.5,2.6,6.3,5.9,6.7v2.8h3.9v-2.7h12.4v2.7h3.9v-2.8
		c3.3-0.5,5.7-3.3,5.7-6.7v-1.7C112.2,26.7,111.3,24.9,110,23.7z M90.2,13.2c1.6-1.3,3.8-1.1,6.1-1.1c2.3,0,4.4-0.3,6.1,0.9
		c1.7,1.2,2.5,2.7,2.5,4.5v4.4H87.8V18C87.8,16.1,88.6,14.5,90.2,13.2z M108.4,30.4c0,1.6-1.3,2.9-2.9,2.9H87.3
		c-1.6,0-2.9-1.3-2.9-2.9v-1.7c0-1.6,1.2-2.9,2.8-2.9h0.6h17.1h0.6c1.6,0,2.9,1.3,2.9,2.9V30.4z"/>
	<circle class="st1" cx="88.3" cy="29.6" r="2"/>
	<circle class="st1" cx="104.6" cy="29.6" r="2"/>
</g>
</svg>
