<?xml version="1.0" encoding="utf-8"?>
<!-- Generator: Adobe Illustrator 24.1.2, SVG Export Plug-In . SVG Version: 6.00 Build 0)  -->
<svg version="1.1" id="Слой_1" xmlns="http://www.w3.org/2000/svg" xmlns:xlink="http://www.w3.org/1999/xlink" x="0px" y="0px"
	 viewBox="0 0 231.9 49.7" style="enable-background:new 0 0 231.9 49.7;" xml:space="preserve">
<style type="text/css">
	.st0{fill-rule:evenodd;clip-rule:evenodd;fill:#FFFFFF;}
	.st1{fill:none;}
	.st2{fill:none;stroke:#FFFFFF;stroke-width:0;stroke-linecap:round;stroke-linejoin:round;}
	.st3{fill-rule:evenodd;clip-rule:evenodd;fill:#6A42FF;}
</style>
<desc>Created with Sketch.</desc>
<path id="Clip-5" class="st0" d="M78.8,7.2c-4.9,4.8-7.4,10.6-7.4,17.4c0,6.9,2.5,12.8,7.4,17.7c4.6,4.7,10.2,7.1,16.6,7.4h2.3
	c6.3-0.3,11.7-2.6,16.2-7.1c4.8-4.8,7.1-10.6,7.1-17.4c0-6.9-2.4-12.8-7.1-17.7S103.4,0,96.6,0C89.7,0,83.8,2.4,78.8,7.2z"/>
<path class="st0" d="M22,12.2v3.7c-0.1-0.1-0.1-0.2-0.2-0.2c-2.4-2.6-5.4-3.9-8.9-3.9s-6.6,1.3-9.1,3.8S0,21.1,0,24.7
	s1.3,6.8,3.8,9.3c2.5,2.6,5.5,3.9,9.1,3.9c3.5,0,6.5-1.3,8.9-3.8c0.1-0.1,0.1-0.1,0.2-0.2v3.7h4V12.2H22z M19,31
	c-1.7,1.7-3.7,2.6-6.1,2.6c-2.4,0-4.4-0.8-6.1-2.5c-1.7-1.7-2.5-3.8-2.4-6.2c0-2.4,0.8-4.4,2.5-6.1c1.7-1.7,3.7-2.5,6.1-2.5
	c2.3,0,4.3,0.7,6,2.4s2.5,3.6,2.5,6S20.7,29.3,19,31z"/>
<path class="st0" d="M175.4,12.3v3.8c-0.1-0.1-0.2-0.2-0.3-0.4c-2.4-2.6-5.4-3.9-8.9-3.9s-6.6,1.3-9.1,3.8s-3.8,5.6-3.8,9.1
	c0,3.6,1.3,6.7,3.8,9.3c2.5,2.6,5.5,3.9,9.1,3.9c3.5,0,6.5-1.3,8.9-3.8c0.1-0.1,0.2-0.2,0.3-0.3v3.8h3.9V12.3H175.4z M172.3,31
	c-1.7,1.7-3.7,2.6-6.1,2.6s-4.4-0.8-6.1-2.5c-1.6-1.7-2.5-3.7-2.4-6.2c0-2.4,0.8-4.4,2.5-6.1c1.7-1.7,3.7-2.5,6.1-2.5
	c2.3,0,4.3,0.7,6,2.4c1.7,1.7,2.5,3.6,2.5,6S174,29.3,172.3,31z"/>
<path class="st1" d="M64.6,32.5c-1.1-0.6-1.8-1.2-2.1-1.6c-0.5-0.7-0.9-1.5-1.2-2.3c-0.3-0.9-0.4-2.1-0.4-3.7v-8.7h6.5v-4h-6.5v-8
	H57l-0.1,8h-2.7v4h2.7l-0.1,9.6c0,1.2,0.1,2.4,0.4,3.6s0.8,2.3,1.6,3.5c1.1,1.5,2.3,2.7,3.8,3.4c1.5,0.8,3,1.3,4.9,1.4v-4.2
	C66.8,33.5,65.7,33.2,64.6,32.5z"/>
<path class="st2" d="M47.5,26.9c0,1.9-0.6,3.5-1.9,4.8c-1.3,1.3-3,1.9-4.8,1.9s-3.4-0.5-4.8-1.7c-1.3-1.2-2-2.7-2-4.5V12.2h-4v16.7
	c0,2.7,1.1,4.9,3.3,6.6c2.1,1.6,4.5,2.4,7.4,2.4c2.9,0,5.4-0.8,7.5-2.5c2.2-1.7,3.2-3.9,3.2-6.5V12.2h-3.9V26.9z"/>
<path class="st0" d="M130.6,33.4v13.1h3.9V33.4h4.5c1.1,0,2.7-0.1,4.5-0.8c1.1-0.4,2.1-0.9,2.8-1.4c0.3-0.3,0.7-0.7,1.2-1.2
	c0.4-0.5,1-1.3,1.5-2.5c0.7-1.5,1-3,1-4.6c0-3-0.8-5.5-2.5-7.7c-1.6-2.2-3.8-3.3-6.3-3.3h-10.6v34.5 M143.7,27.4
	c-1.3,1.2-2.8,1.8-4.6,1.8h-4.6v-13h5.1c1.7,0,3.1,0.6,4.3,2s1.8,2.9,1.8,4.8C145.7,24.8,145,26.3,143.7,27.4z"/>
<path class="st0" d="M228,12.3v3.9c-0.1-0.1-0.2-0.2-0.3-0.4c-2.4-2.6-5.4-3.9-8.9-3.9s-6.6,1.3-9.1,3.8s-3.7,5.5-3.8,9.1
	c0,3.6,1.3,6.7,3.8,9.3c2.5,2.6,5.5,3.9,9.1,3.9c3.5,0,6.5-1.3,8.9-3.8c0.1-0.1,0.2-0.2,0.3-0.3v3.8h3.9V12.3H228z M225,31.1
	c-1.7,1.7-3.7,2.6-6.1,2.6c-2.4,0-4.4-0.8-6.1-2.5c-1.7-1.7-2.5-3.8-2.4-6.2c0-2.4,0.8-4.4,2.5-6.1s3.7-2.5,6.1-2.5
	c2.3,0,4.3,0.7,6,2.4c1.7,1.7,2.5,3.6,2.5,6C227.5,27.2,226.7,29.4,225,31.1z"/>
<path class="st0" d="M183.3,33.5v13.1h3.9V33.5h4.5c1.1,0,2.7-0.1,4.5-0.8c1.1-0.4,2.1-0.9,2.8-1.4c0.3-0.3,0.7-0.7,1.2-1.2
	c0.4-0.5,1-1.3,1.5-2.5c0.7-1.5,1-3,1-4.6c0-3-0.8-5.5-2.5-7.7c-1.6-2.2-3.8-3.3-6.3-3.3h-10.6v34.5 M196.4,27.5
	c-1.3,1.2-2.8,1.8-4.6,1.8h-4.6v-13h5.1c1.7,0,3.1,0.6,4.3,2s1.8,2.9,1.8,4.8C198.3,24.8,197.7,26.3,196.4,27.5z"/>
<g>
	<path class="st3" d="M110,23.7V16c0-2.7-1.4-4.9-4.2-6.6c-2.6-1.6-5.8-1.3-9.5-1.3c-3.6,0-6.8-0.3-9.6,1.4
		c-2.7,1.7-4.1,3.9-4.1,6.5v7.7c-1.4,1.2-2.2,3-2.2,5v1.7c0,3.5,2.6,6.3,5.9,6.7v2.8h3.9v-2.7h12.4v2.7h3.9v-2.8
		c3.3-0.5,5.7-3.3,5.7-6.7v-1.7C112.2,26.7,111.3,24.9,110,23.7z M90.2,13.2c1.6-1.3,3.8-1.1,6.1-1.1c2.3,0,4.4-0.3,6.1,0.9
		s2.5,2.7,2.5,4.5v4.4H87.8V18C87.8,16.1,88.6,14.5,90.2,13.2z M108.4,30.4c0,1.6-1.3,2.9-2.9,2.9H87.3c-1.6,0-2.9-1.3-2.9-2.9v-1.7
		c0-1.6,1.2-2.9,2.8-2.9h0.6h17.1h0.6c1.6,0,2.9,1.3,2.9,2.9V30.4z"/>
	<circle class="st3" cx="88.3" cy="29.6" r="2"/>
	<circle class="st3" cx="104.6" cy="29.6" r="2"/>
</g>
</svg>
